REM DIRINDEX 1\2\4,1\2\5,1\2\6,1\3\7,1\3\8,1\3\9,1\3\10
REM DIRNAME folder01,folder02,folder03,folder04,folder05,folder06,folder07,folder08,folder09,folder10
TITLE ""
FILE "b_133.mp3" MP3
  TRACK 01 AUDIO
    TITLE "0:"
    INDEX 01 00:00:00
  TRACK 02 AUDIO
    TITLE "7:cjc057_08281"
    INDEX 01 00:00:15
  TRACK 03 AUDIO
    TITLE "0:"
    INDEX 01 00:01:26
  TRACK 04 AUDIO
    TITLE "8:cjc057_08282"
    INDEX 01 00:01:60
  TRACK 05 AUDIO
    TITLE "0:"
    INDEX 01 00:04:11
  TRACK 06 AUDIO
    TITLE "7:cjc057_08283"
    INDEX 01 00:05:22
  TRACK 07 AUDIO
    TITLE "0:"
    INDEX 01 00:06:43
  TRACK 08 AUDIO
    TITLE "8:cjc057_08284"
    INDEX 01 00:07:00
  TRACK 09 AUDIO
    TITLE "0:"
    INDEX 01 00:09:24
  TRACK 10 AUDIO
    TITLE "7:cjc057_08285"
    INDEX 01 00:10:33
  TRACK 11 AUDIO
    TITLE "0:"
    INDEX 01 00:11:52
  TRACK 12 AUDIO
    TITLE "8:cjc057_08286"
    INDEX 01 00:12:11
  TRACK 13 AUDIO
    TITLE "0:"
    INDEX 01 00:14:19
  TRACK 14 AUDIO
    TITLE "7:cjc057_08287"
    INDEX 01 00:15:27
  TRACK 15 AUDIO
    TITLE "0:"
    INDEX 01 00:16:42
  TRACK 16 AUDIO
    TITLE "8:cjc057_08288"
    INDEX 01 00:17:00
  TRACK 17 AUDIO
    TITLE "0:"
    INDEX 01 00:20:08
  TRACK 18 AUDIO
    TITLE "7:cjc057_08289"
    INDEX 01 00:21:17
  TRACK 19 AUDIO
    TITLE "0:"
    INDEX 01 00:22:27
  TRACK 20 AUDIO
    TITLE "8:cjc057_08290"
    INDEX 01 00:22:60
  TRACK 21 AUDIO
    TITLE "0:"
    INDEX 01 00:24:00
  TRACK 22 AUDIO
    TITLE "7:cjc057_08291"
    INDEX 01 00:25:07
  TRACK 23 AUDIO
    TITLE "0:"
    INDEX 01 00:26:09
  TRACK 24 AUDIO
    TITLE "8:cjc057_08292"
    INDEX 01 00:26:42
  TRACK 25 AUDIO
    TITLE "0:"
    INDEX 01 00:27:59
  TRACK 26 AUDIO
    TITLE "7:cjc057_08293"
    INDEX 01 00:28:68
  TRACK 27 AUDIO
    TITLE "0:"
    INDEX 01 00:30:18
  TRACK 28 AUDIO
    TITLE "8:cjc057_08294"
    INDEX 01 00:30:54
  TRACK 29 AUDIO
    TITLE "0:"
    INDEX 01 00:31:59
  TRACK 30 AUDIO
    TITLE "7:cjc057_08295"
    INDEX 01 00:32:70
  TRACK 31 AUDIO
    TITLE "0:"
    INDEX 01 00:34:14
  TRACK 32 AUDIO
    TITLE "8:cjc057_08296"
    INDEX 01 00:34:49
  TRACK 33 AUDIO
    TITLE "0:"
    INDEX 01 00:37:71
  TRACK 34 AUDIO
    TITLE "7:cjc057_08297"
    INDEX 01 00:39:07
  TRACK 35 AUDIO
    TITLE "0:"
    INDEX 01 00:40:15
  TRACK 36 AUDIO
    TITLE "8:cjc057_08298"
    INDEX 01 00:40:46
  TRACK 37 AUDIO
    TITLE "0:"
    INDEX 01 00:44:12
  TRACK 38 AUDIO
    TITLE "7:cjc057_08299"
    INDEX 01 00:45:20
  TRACK 39 AUDIO
    TITLE "0:"
    INDEX 01 00:46:29
  TRACK 40 AUDIO
    TITLE "8:cjc057_08300"
    INDEX 01 00:46:64
  TRACK 41 AUDIO
    TITLE "0:"
    INDEX 01 00:47:60
  TRACK 42 AUDIO
    TITLE "7:cjc057_08301"
    INDEX 01 00:48:69
  TRACK 43 AUDIO
    TITLE "0:"
    INDEX 01 00:49:74
  TRACK 44 AUDIO
    TITLE "8:cjc057_08302"
    INDEX 01 00:50:33
  TRACK 45 AUDIO
    TITLE "0:"
    INDEX 01 00:54:72
  TRACK 46 AUDIO
    TITLE "7:cjc057_08303"
    INDEX 01 00:56:06
  TRACK 47 AUDIO
    TITLE "0:"
    INDEX 01 00:57:09
  TRACK 48 AUDIO
    TITLE "8:cjc057_08304"
    INDEX 01 00:57:43
  TRACK 49 AUDIO
    TITLE "0:"
    INDEX 01 00:59:59
  TRACK 50 AUDIO
    TITLE "7:cjc057_08305"
    INDEX 01 01:00:64
  TRACK 51 AUDIO
    TITLE "0:"
    INDEX 01 01:01:72
  TRACK 52 AUDIO
    TITLE "8:cjc057_08306"
    INDEX 01 01:02:30
  TRACK 53 AUDIO
    TITLE "0:"
    INDEX 01 01:03:39
  TRACK 54 AUDIO
    TITLE "7:cjc057_08307"
    INDEX 01 01:04:50
  TRACK 55 AUDIO
    TITLE "0:"
    INDEX 01 01:05:60
  TRACK 56 AUDIO
    TITLE "8:cjc057_08308"
    INDEX 01 01:06:16
  TRACK 57 AUDIO
    TITLE "0:"
    INDEX 01 01:09:50
  TRACK 58 AUDIO
    TITLE "7:cjc057_08309"
    INDEX 01 01:10:59
  TRACK 59 AUDIO
    TITLE "0:"
    INDEX 01 01:11:60
  TRACK 60 AUDIO
    TITLE "8:cjc057_08310"
    INDEX 01 01:12:19
  TRACK 61 AUDIO
    TITLE "0:"
    INDEX 01 01:14:41
  TRACK 62 AUDIO
    TITLE "7:cjc057_08311"
    INDEX 01 01:15:50
  TRACK 63 AUDIO
    TITLE "0:"
    INDEX 01 01:16:71
  TRACK 64 AUDIO
    TITLE "8:cjc057_08312"
    INDEX 01 01:17:30
  TRACK 65 AUDIO
    TITLE "0:"
    INDEX 01 01:18:72
  TRACK 66 AUDIO
    TITLE "7:cjc057_08313"
    INDEX 01 01:20:06
  TRACK 67 AUDIO
    TITLE "0:"
    INDEX 01 01:21:18
  TRACK 68 AUDIO
    TITLE "8:cjc057_08314"
    INDEX 01 01:21:51
  TRACK 69 AUDIO
    TITLE "0:"
    INDEX 01 01:23:03
  TRACK 70 AUDIO
    TITLE "7:cjc057_08315"
    INDEX 01 01:24:08
  TRACK 71 AUDIO
    TITLE "0:"
    INDEX 01 01:25:21
  TRACK 72 AUDIO
    TITLE "8:cjc057_08316"
    INDEX 01 01:25:55
  TRACK 73 AUDIO
    TITLE "0:"
    INDEX 01 01:26:66
  TRACK 74 AUDIO
    TITLE "7:cjc057_08317"
    INDEX 01 01:28:00
  TRACK 75 AUDIO
    TITLE "0:"
    INDEX 01 01:29:11
  TRACK 76 AUDIO
    TITLE "8:cjc057_08318"
    INDEX 01 01:29:46
  TRACK 77 AUDIO
    TITLE "0:"
    INDEX 01 01:31:41
  TRACK 78 AUDIO
    TITLE "7:cjc057_08319"
    INDEX 01 01:32:49
  TRACK 79 AUDIO
    TITLE "0:"
    INDEX 01 01:33:60
  TRACK 80 AUDIO
    TITLE "8:cjc057_08320"
    INDEX 01 01:34:20
  TRACK 81 AUDIO
    TITLE "0:"
    INDEX 01 01:36:35
  TRACK 82 AUDIO
    TITLE "7:cjc057_08321"
    INDEX 01 01:37:44
  TRACK 83 AUDIO
    TITLE "0:"
    INDEX 01 01:38:47
  TRACK 84 AUDIO
    TITLE "8:cjc057_08322"
    INDEX 01 01:39:06
  TRACK 85 AUDIO
    TITLE "0:"
    INDEX 01 01:41:24
  TRACK 86 AUDIO
    TITLE "7:cjc057_08323"
    INDEX 01 01:42:33
  TRACK 87 AUDIO
    TITLE "0:"
    INDEX 01 01:43:52
  TRACK 88 AUDIO
    TITLE "8:cjc057_08324"
    INDEX 01 01:44:13
  TRACK 89 AUDIO
    TITLE "0:"
    INDEX 01 01:46:00
  TRACK 90 AUDIO
    TITLE "7:cjc057_08325"
    INDEX 01 01:47:05
  TRACK 91 AUDIO
    TITLE "0:"
    INDEX 01 01:48:03
  TRACK 92 AUDIO
    TITLE "8:cjc057_08326"
    INDEX 01 01:48:34
  TRACK 93 AUDIO
    TITLE "0:"
    INDEX 01 01:50:56
  TRACK 94 AUDIO
    TITLE "7:cjc057_08327"
    INDEX 01 01:51:64
  TRACK 95 AUDIO
    TITLE "0:"
    INDEX 01 01:53:02
  TRACK 96 AUDIO
    TITLE "8:cjc057_08328"
    INDEX 01 01:53:37
  TRACK 97 AUDIO
    TITLE "0:"
    INDEX 01 01:55:50
  TRACK 98 AUDIO
    TITLE "7:cjc057_08329"
    INDEX 01 01:56:59
  TRACK 99 AUDIO
    TITLE "0:"
    INDEX 01 01:58:09
  TRACK 100 AUDIO
    TITLE "8:cjc057_08330"
    INDEX 01 01:58:44
  TRACK 101 AUDIO
    TITLE "0:"
    INDEX 01 02:00:63
  TRACK 102 AUDIO
    TITLE "7:cjc057_08331"
    INDEX 01 02:01:70
  TRACK 103 AUDIO
    TITLE "0:"
    INDEX 01 02:03:12
  TRACK 104 AUDIO
    TITLE "8:cjc057_08332"
    INDEX 01 02:03:47
  TRACK 105 AUDIO
    TITLE "0:"
    INDEX 01 02:04:51
  TRACK 106 AUDIO
    TITLE "7:cjc057_08333"
    INDEX 01 02:05:62
  TRACK 107 AUDIO
    TITLE "0:"
    INDEX 01 02:07:00
  TRACK 108 AUDIO
    TITLE "8:cjc057_08334"
    INDEX 01 02:07:31
  TRACK 109 AUDIO
    TITLE "0:"
    INDEX 01 02:09:62
  TRACK 110 AUDIO
    TITLE "7:cjc057_08335"
    INDEX 01 02:10:73
  TRACK 111 AUDIO
    TITLE "0:"
    INDEX 01 02:12:15
  TRACK 112 AUDIO
    TITLE "8:cjc057_08336"
    INDEX 01 02:12:48
  TRACK 113 AUDIO
    TITLE "0:"
    INDEX 01 02:14:63
